<?xml version="1.0" encoding="UTF-8" standalone="no"?>
<!-- Created with Inkscape (http://www.inkscape.org/) -->

<svg
   xmlns:dc="http://purl.org/dc/elements/1.1/"
   xmlns:cc="http://creativecommons.org/ns#"
   xmlns:rdf="http://www.w3.org/1999/02/22-rdf-syntax-ns#"
   xmlns:svg="http://www.w3.org/2000/svg"
   xmlns="http://www.w3.org/2000/svg"
   xmlns:sodipodi="http://sodipodi.sourceforge.net/DTD/sodipodi-0.dtd"
   xmlns:inkscape="http://www.inkscape.org/namespaces/inkscape"
   width="637"
   height="358"
   viewBox="0 0 637 358"
   id="svg2"
   version="1.1"
   inkscape:version="0.91 r13725"
   enable-background="new"
   sodipodi:docname="icon.svg"
   inkscape:export-filename="C:\Program Files (x86)\Steam\steamapps\common\RimWorld\Mods\CraftingHysteresis_Dev\About\Preview.png"
   inkscape:export-xdpi="50.509998"
   inkscape:export-ydpi="50.509998">
  <defs
     id="defs4">
    <clipPath
       clipPathUnits="userSpaceOnUse"
       id="clipPath5385">
      <rect
         style="opacity:1;fill:#946fad;fill-opacity:1;stroke:none;stroke-width:1;stroke-linecap:round;stroke-linejoin:round;stroke-miterlimit:4;stroke-dasharray:none;stroke-opacity:1"
         id="rect5387"
         width="637"
         height="358"
         x="0"
         y="694.36218"
         ry="0" />
    </clipPath>
    <filter
       style="color-interpolation-filters:sRGB;"
       inkscape:label="Drop Shadow 25"
       id="filter4217"
       width="2"
       height="2"
       x="-0.5"
       y="-0.5">
      <feFlood
         flood-opacity="1"
         flood-color="rgb(0,0,0)"
         result="flood"
         id="feFlood4219" />
      <feComposite
         in="flood"
         in2="SourceGraphic"
         operator="in"
         result="composite1"
         id="feComposite4221" />
      <feGaussianBlur
         in="composite1"
         stdDeviation="25"
         result="blur"
         id="feGaussianBlur4223" />
      <feOffset
         dx="0"
         dy="0"
         result="offset"
         id="feOffset4225" />
      <feComposite
         in="SourceGraphic"
         in2="offset"
         operator="over"
         result="composite2"
         id="feComposite4227" />
    </filter>
    <filter
       style="color-interpolation-filters:sRGB"
       inkscape:label="Drop Shadow 10"
       id="filter4217-0">
      <feFlood
         flood-opacity="1"
         flood-color="rgb(0,0,0)"
         result="flood"
         id="feFlood4219-0" />
      <feComposite
         in="flood"
         in2="SourceGraphic"
         operator="in"
         result="composite1"
         id="feComposite4221-6" />
      <feGaussianBlur
         in="composite1"
         stdDeviation="10"
         result="blur"
         id="feGaussianBlur4223-9" />
      <feOffset
         dx="0"
         dy="0"
         result="offset"
         id="feOffset4225-9" />
      <feComposite
         in2="offset"
         operator="over"
         result="composite2"
         id="feComposite4227-2"
         in="SourceGraphic" />
    </filter>
    <filter
       y="-0.5"
       x="-0.5"
       height="2"
       width="2"
       id="filter4211"
       inkscape:label="Drop Shadow 25"
       style="color-interpolation-filters:sRGB;">
      <feFlood
         id="feFlood4213"
         result="flood"
         flood-color="rgb(0,0,0)"
         flood-opacity="1" />
      <feComposite
         id="feComposite4215"
         result="composite1"
         operator="in"
         in2="SourceGraphic"
         in="flood" />
      <feGaussianBlur
         id="feGaussianBlur4217"
         result="blur"
         stdDeviation="25"
         in="composite1" />
      <feOffset
         id="feOffset4219"
         result="offset"
         dy="0"
         dx="0" />
      <feComposite
         id="feComposite4222"
         result="composite2"
         operator="over"
         in2="offset"
         in="SourceGraphic" />
    </filter>
  </defs>
  <sodipodi:namedview
     id="base"
     pagecolor="#ffffff"
     bordercolor="#666666"
     borderopacity="1.0"
     inkscape:pageopacity="0.0"
     inkscape:pageshadow="2"
     inkscape:zoom="1.3759287"
     inkscape:cx="433.11984"
     inkscape:cy="17.51277"
     inkscape:document-units="px"
     inkscape:current-layer="g5381"
     showgrid="true"
     guidetolerance="20"
     inkscape:snap-perpendicular="false"
     objecttolerance="20"
     showguides="true"
     inkscape:guide-bbox="true"
     inkscape:window-width="1975"
     inkscape:window-height="1345"
     inkscape:window-x="1620"
     inkscape:window-y="42"
     inkscape:window-maximized="0">
    <sodipodi:guide
       position="0,0"
       orientation="0,637"
       id="guide4697" />
    <sodipodi:guide
       position="637,0"
       orientation="-358,0"
       id="guide4699" />
    <sodipodi:guide
       position="0,358"
       orientation="358,0"
       id="guide4703" />
    <sodipodi:guide
       position="-46.484375,179"
       orientation="0,1"
       id="guide5429"
       inkscape:label=""
       inkscape:color="rgb(0,0,255)" />
    <sodipodi:guide
       position="318.5,453"
       orientation="1,0"
       id="guide5471"
       inkscape:label=""
       inkscape:color="rgb(0,0,255)" />
  </sodipodi:namedview>
  <metadata
     id="metadata7">
    <rdf:RDF>
      <cc:Work
         rdf:about="">
        <dc:format>image/svg+xml</dc:format>
        <dc:type
           rdf:resource="http://purl.org/dc/dcmitype/StillImage" />
        <dc:title />
      </cc:Work>
    </rdf:RDF>
  </metadata>
  <g
     inkscape:label="Layer 1"
     inkscape:groupmode="layer"
     id="layer1"
     transform="translate(0,-694.36218)"
     style="filter:url(#filter5465)">
    <g
       id="g5381"
       clip-path="url(#clipPath5385)"
       inkscape:export-filename="C:\Program Files (x86)\Steam\steamapps\common\RimWorld\Mods\OSHACompliance_Dev\About\Preview.png"
       inkscape:export-xdpi="90"
       inkscape:export-ydpi="90">
      <rect
         clip-path="none"
         y="694.36218"
         x="0"
         height="358"
         width="637"
         id="rect5373"
         style="opacity:1;fill:#16360c;fill-opacity:1;stroke:none;stroke-width:1;stroke-linecap:round;stroke-linejoin:round;stroke-miterlimit:4;stroke-dasharray:none;stroke-opacity:1"
         inkscape:export-filename="C:\Program Files (x86)\Steam\steamapps\common\RimWorld\Mods\SillyBuilder_Dev\About\Preview.png"
         inkscape:export-xdpi="90"
         inkscape:export-ydpi="90" />
      <path
         style="opacity:1;fill:#538347;fill-opacity:1;stroke:none;stroke-width:1;stroke-linecap:round;stroke-linejoin:round;stroke-miterlimit:4;stroke-dasharray:none;stroke-opacity:1;filter:url(#filter4217)"
         d="M -64.167969 -72.625 L -115.33203 118.32422 L -145.66992 126.45312 L -131.58984 179.00195 L -154.49414 264.48438 L -105.14258 277.70898 L -55.34375 463.5625 L 124.31836 415.42188 L 60.970703 179.00195 L 115.49414 -24.484375 L -64.167969 -72.625 z "
         transform="translate(0,694.36218)"
         id="rect5406" />
      <path
         inkscape:connector-curvature="0"
         style="opacity:1;fill:#538347;fill-opacity:1;stroke:none;stroke-width:1;stroke-linecap:round;stroke-linejoin:round;stroke-miterlimit:4;stroke-dasharray:none;stroke-opacity:1;filter:url(#filter4217)"
         d="m 701.11719,621.73718 51.16406,190.94922 30.33789,8.1289 -14.08008,52.54883 22.9043,85.48247 -49.35156,13.2246 -49.79883,185.8535 -179.66211,-48.1406 63.34766,-236.41997 -54.52344,-203.48632 179.66211,-48.14063 z"
         id="rect5406-9" />
      <rect
         style="opacity:1;fill:#061901;fill-opacity:1;stroke:none;stroke-width:1;stroke-linecap:round;stroke-linejoin:round;stroke-miterlimit:4;stroke-dasharray:none;stroke-opacity:1;filter:url(#filter4217-0)"
         id="rect5491"
         width="800.50531"
         height="181"
         x="-63.53212"
         y="983.36218" />
      <flowRoot
         xml:space="preserve"
         id="flowRoot5457"
         style="font-style:normal;font-weight:normal;font-size:40px;line-height:125%;font-family:Sans;letter-spacing:0px;word-spacing:0px;fill:#000000;fill-opacity:1;stroke:none;stroke-width:1px;stroke-linecap:butt;stroke-linejoin:miter;stroke-opacity:1;filter:url(#filter5465)"
         transform="translate(-142.73828,695.17428)"
         inkscape:export-filename="C:\Program Files (x86)\Steam\steamapps\common\RimWorld\Mods\Raindrops_Dev\About\Preview.png"
         inkscape:export-xdpi="90"
         inkscape:export-ydpi="90"><flowRegion
           id="flowRegion5459"><rect
             id="rect5461"
             width="674.86646"
             height="123.5824"
             x="126"
             y="292" /></flowRegion><flowPara
           style="font-style:normal;font-variant:normal;font-weight:bold;font-stretch:condensed;font-size:45px;font-family:'Agency FB';-inkscape-font-specification:'Agency FB Bold Condensed';text-align:center;text-anchor:middle;fill:#ffffff;fill-opacity:1"
           id="flowPara4159">Silly Builder, Surgery is for Doctors</flowPara></flowRoot>      <g
         id="g4184"
         transform="matrix(0.4236847,0,0,0.4236847,209.14039,737.49285)"
         style="filter:url(#filter4217-0)">
        <path
           id="path4174"
           d="m 0,0 512,0 0,512 -512,0 z"
           inkscape:connector-curvature="0"
           style="opacity:0;fill:#000000" />
        <path
           id="path4176"
           d="m 324.563,39.156 c -1.138,0.025 -2.285,0.144 -3.438,0.407 -9.223,2.097 -15.004,11.275 -12.906,20.5 0.006,0.032 0.022,0.06 0.03,0.093 l -22.813,28.188 -3.25,4 1.688,4.906 13.906,40.563 -142.655,24.03 c 12.343,10.045 19.98,25.555 19.28,42.595 -0.146,3.584 -0.664,7.08 -1.5,10.437 l 130.532,-53.438 -0.125,-0.968 c 5.93,7.795 15.912,12.005 26.375,10.124 14.91,-2.68 24.684,-16.683 22.063,-31.5 -2.294,-12.967 -13.248,-22.02 -25.938,-22.28 -1.812,-0.04 -3.636,0.1 -5.5,0.436 -3.173,0.57 -6.11,1.66 -8.75,3.156 l -8.343,-24.344 18.592,-22.968 c 2.22,0.41 4.566,0.407 6.907,-0.125 9.223,-2.1 15.003,-11.277 12.905,-20.5 -1.835,-8.07 -9.098,-13.487 -17.063,-13.314 z m 115,29.032 c -1.277,0.04 -2.56,0.218 -3.844,0.562 -4.19,1.123 -7.587,3.714 -9.814,7.063 l -38.687,-6.126 -3.97,-0.624 -3.188,2.437 -38.656,29.688 c 6.234,2.39 11.882,6.11 16.53,10.874 l 30.314,-23.28 37.656,5.968 c 3.954,5.975 11.386,9.05 18.688,7.094 9.138,-2.45 14.542,-11.83 12.094,-20.97 -1.99,-7.422 -8.55,-12.396 -15.844,-12.686 -0.42,-0.017 -0.856,-0.014 -1.28,0 z m -39.188,57.906 -1.875,0.125 -30.375,2.093 c 0.874,2.415 1.57,4.92 2.03,7.53 0.66,3.716 0.842,7.42 0.595,11.032 l 27.188,-1.874 28.03,9.5 c 0.094,0.592 0.186,1.19 0.344,1.78 2.45,9.14 11.863,14.575 21,12.126 9.138,-2.448 14.543,-11.862 12.094,-21 -2.448,-9.136 -11.832,-14.54 -20.97,-12.094 -1.712,0.46 -3.293,1.163 -4.717,2.063 l -31.564,-10.688 -1.78,-0.593 z m -34.563,38.5 c -2.905,5.672 -6.976,10.723 -11.937,14.78 l 42.594,23.564 c -0.117,1.813 0.065,3.678 0.56,5.53 2.45,9.14 11.832,14.574 20.97,12.126 9.138,-2.45 14.542,-11.862 12.094,-21 -2.448,-9.136 -11.833,-14.542 -20.97,-12.094 -0.408,0.11 -0.793,0.238 -1.187,0.375 l -42.125,-23.28 z m -244.125,4.187 c -15.272,0.178 -28.172,10.388 -32.156,24.532 l 63.626,-4.125 c -4.89,-11.59 -16.144,-19.853 -29.72,-20.375 -0.584,-0.022 -1.17,-0.037 -1.75,-0.03 z m 33.626,39 -65.688,4.282 c 3.957,13.412 16.086,23.334 31,23.907 17.34,0.664 31.975,-11.602 34.688,-28.19 z m 8.53,26 c -10.032,13.228 -26.167,21.558 -43.937,20.876 -1.114,-0.043 -2.217,-0.107 -3.312,-0.22 l 53.47,84.19 c 8.282,-19.396 26.015,-33.782 47.155,-37.532 l -53.376,-67.313 z m 63.813,85.064 c -23.575,0.275 -42.9,18.79 -43.875,42.5 -0.28,6.824 0.998,13.33 3.5,19.187 l 71.907,-49.217 c -7.55,-7.335 -17.78,-11.998 -29.25,-12.438 -0.768,-0.03 -1.52,-0.04 -2.28,-0.03 z m 41.844,28.03 -71.375,48.876 c 7.424,6.734 17.208,10.987 28.125,11.406 24.605,0.945 45.182,-17.993 46.188,-42.47 0.258,-6.297 -0.803,-12.316 -2.938,-17.81 z m -86.406,60.188 -7.47,43.438 104.376,0 -9.03,-41.563 c -11.892,11.045 -27.98,17.576 -45.408,16.907 -16.657,-0.64 -31.6,-7.736 -42.468,-18.78 z m -38.53,62.125 0,24.75 169.374,0 0,-24.75 -169.375,0 z"
           inkscape:connector-curvature="0"
           style="fill:#ffffff" />
      </g>
    </g>
    <text
       xml:space="preserve"
       style="font-style:normal;font-weight:normal;font-size:40px;line-height:125%;font-family:Sans;letter-spacing:0px;word-spacing:0px;fill:#000000;fill-opacity:1;stroke:none;stroke-width:1px;stroke-linecap:butt;stroke-linejoin:miter;stroke-opacity:1"
       x="469.41989"
       y="1031.851"
       id="text4800"
       sodipodi:linespacing="125%"><tspan
         sodipodi:role="line"
         id="tspan4802"
         x="469.41989"
         y="1031.851" /></text>
    <g
       id="g4203"
       transform="translate(-352.8045,876.78438)" />
  </g>
</svg>
